HIERARCHY
ROOT Hip
{
	OFFSET 0 0 0
	CHANNELS 6 Xposition Yposition Zposition Zrotation Yrotation Xrotation
	JOINT ShoulderCenter
	{
		OFFSET 0 43.63 0
		CHANNELS 3 Zrotation Yrotation Xrotation
		JOINT Head
		{
			OFFSET 0 18.49 0
			CHANNELS 3 Zrotation Yrotation Xrotation
			End Site
			{
				OFFSET 0.0 8.91 0.0
			}
		}
		JOINT ShoulderLeft
		{
			OFFSET -14 0 0
			CHANNELS 3 Zrotation Yrotation Xrotation
			JOINT ElbowLeft
			{
				OFFSET -25 0 0
				CHANNELS 3 Zrotation Yrotation Xrotation
				JOINT WristLeft
				{
					OFFSET -23 0 0
					CHANNELS 3 Zrotation Yrotation Xrotation
					End Site
					{
						OFFSET -8.32 0.0 0.0
					}
				}
			}
		}
		JOINT ShoulderRight
		{
			OFFSET 14 0 0
			CHANNELS 3 Zrotation Yrotation Xrotation
			JOINT ElbowRight
			{
				OFFSET 25 0 0
				CHANNELS 3 Zrotation Yrotation Xrotation
				JOINT WristRight
				{
					OFFSET 23 0 0
					CHANNELS 3 Zrotation Yrotation Xrotation
					End Site
					{
						OFFSET 8.32 0.0 0.0
					}
				}
			}
		}
	}
	JOINT HipLeft
	{
		OFFSET -9.52 0 0
		CHANNELS 3 Zrotation Yrotation Xrotation
		JOINT KneeLeft
		{
			OFFSET 0 -37.32 0
			CHANNELS 3 Zrotation Yrotation Xrotation
			JOINT AnkleLeft
			{
				OFFSET 0 -34.6 0
				CHANNELS 3 Zrotation Yrotation Xrotation
				End Site
				{
					OFFSET 0.0 0.0 8.91
				}
			}
		}
	}
	JOINT HipRight
	{
		OFFSET 9.52 0 0
		CHANNELS 3 Zrotation Yrotation Xrotation
		JOINT KneeRight
		{
			OFFSET 0 -37.32 0
			CHANNELS 3 Zrotation Yrotation Xrotation
			JOINT AnkleRight
			{
				OFFSET 0 -34.6 0
				CHANNELS 3 Zrotation Yrotation Xrotation
				End Site
				{
					OFFSET 0.0 0.0 8.91
				}
			}
		}
	}
}
MOTION
Frames: 19
Frame Time: 0.033333
5.49465 -23.0969 -154.912 1.26142 -17.7889 2.75518 0.00474958 -0.00035197 3.84841 0 0 2.66804e-08 0 0 0 0 0 0 0 0 0 -79.6496 18.4151 -23.4217 -2.58071e-06 -26.8083 -1.14036e-06 0 0 0 -2.59323 -0.711574 -1.39978 6.27585 -0.630215 9.62716 0 0 0 0.582234 2.69967 -5.54686 -12.8123 3.53181 16.1424 0 0 0 
4.75001 -23.0748 -157.789 2.49281 -11.0202 0.556903 -0.441916 -0.0444556 4.00308 0 0 -4.26887e-07 0 0 0 0 0 0 0 0 0 -73.6452 17.0906 -9.01862 2.97221e-06 -23.0403 -1.69495e-06 0 0 0 -3.82489 -0.782296 1.22146 8.52416 -0.623188 7.43294 -1.06722e-07 4.96962e-17 5.33609e-08 0.415815 3.03606 -5.93008 -11.5688 4.3086 21.313 0 0 0 
3.90035 -23.213 -160.358 1.45842 -11.8028 1.41885 0.444132 -0.0219961 2.83852 0 0 0 0 0 0 0 0 0 0 0 0 -75.1474 20.6944 -15.5923 5.65305e-06 -24.6404 -1.12542e-06 0 0 0 -1.10156 -0.76307 -1.91514 5.86451 -1.02696 12.1317 0 0 0 -0.26452 4.61931 -4.22739 -9.83306 6.49877 33.3168 0 0 0 
3.0628 -23.2252 -162.17 1.11525 -10.0106 1.41554 0.813069 -0.0129123 0.907033 0 0 0 0 0 0 0 0 0 0 0 0 -73.1238 22.1934 -12.7718 0.0963268 -20.1668 -0.370941 3.41676e-06 1.06722e-07 -1.06722e-07 -1.00516 -0.81441 -1.47335 6.45346 -1.12534 11.6276 0 0 0 0.402164 5.30725 -4.0851 -10.1393 6.85015 35.4384 0 0 0 
2.33297 -23.3269 -164.632 1.68001 -6.80032 -0.564206 -0.917881 0.0873367 5.4326 0 0 0 0 0 0 0 0 0 0 0 0 -72.6288 16.8962 -10.8761 4.28192 -18.5885 -1.05614 0 0 0 -1.4886 -0.756726 0.0337212 5.82195 -1.00306 12.8878 -5.33608e-08 0 0 -0.246591 3.31097 1.16235 -9.31733 5.16124 28.0288 8.57109e-07 1.27594e-14 -1.70588e-06 
1.93978 -23.5472 -166.729 1.63335 -6.52752 -0.225894 -1.24627 0.0773663 4.06538 -6.26055e-18 1.66753e-09 -4.30222e-07 0 0 0 0 0 0 0 0 0 -72.0306 17.5306 -10.2931 4.50478 -14.3861 -0.874416 0 0 0 -0.602512 -0.723005 -2.38459 4.43444 -1.09904 15.996 0 0 0 -1.08959 3.26106 0.810154 -8.08895 5.33528 30.2428 0 0 0 
1.58933 -23.6874 -169.016 1.11963 -6.18136 -0.266288 -0.701434 -0.0185229 3.74607 0 0 0 0 0 0 0 0 0 0 0 0 -70.7132 14.9445 -9.52464 2.15255 -9.60594 -0.304435 0 0 0 1.61373 -0.261982 -5.33627 2.13781 -1.46585 19.4948 -4.26887e-07 -5.33609e-08 1.98785e-16 -2.10883 2.28941 2.37498 -6.55598 4.16621 27.2527 4.53567e-07 6.75868e-15 -1.70755e-06 
1.18524 -24.1966 -171.313 -0.289659 -8.33365 0.747531 1.13645 0.156193 -1.08674 0 0 0 0 0 0 0 0 0 0 0 0 -72.2013 19.9732 -10.4022 2.72395 -9.48962 -0.287779 0 0 0 4.03318 0.237296 -8.40442 0.927898 -1.49249 19.9588 0 0 0 -0.590749 3.89515 5.16834 -10.2826 6.23832 27.7438 0 0 0 
1.18524 -24.6459 -173.34 -0.226079 -8.34214 0.306474 1.02012 -0.0740581 -0.413553 0 0 0 0 0 0 0 0 0 0 0 0 -72.5288 20.3322 -10.8186 0.625974 -9.6316 0.0858349 0 0 0 3.9154 0.397981 -9.16919 0.327722 -1.58004 22.7284 0 0 2.66804e-08 -0.830545 3.12733 8.18155 -11.331 4.97318 21.0641 0 0 0 
1.18524 -25.0937 -175.215 -0.219506 -6.84314 -0.07746 0.518845 -0.166745 -0.563262 0 0 0 0 0 0 0 0 0 0 0 0 -72.4247 20.7008 -9.55534 0.149188 -9.80739 0.30771 0 0 0 2.70363 -0.223394 -5.68816 3.10915 -1.72559 16.0516 0 8.53774e-07 0 -2.17758 1.93127 12.6419 -10.3286 2.47244 11.0041 0 0 0 
1.43014 -25.7957 -178.033 -1.43806 -5.59636 2.78454 2.17777 -0.0365062 -3.72763 0 0 0 0 0 0 0 0 0 0 0 0 -74.1414 23.9065 -8.95104 -0.0692652 -15.1456 0.825991 0 0 0 3.2556 -0.276839 -10.9975 4.13728 -2.19428 18.1087 5.33608e-08 0 0 -1.14249 1.43764 7.71287 -9.58094 1.94172 9.58994 0 0 0 
1.43014 -26.5108 -180.328 -2.31379 -5.60079 2.50545 1.67321 0.0580521 -2.19298 0 0 0 0 0 0 0 0 0 0 0 0 -72.9958 21.3009 -9.14435 -0.678276 -14.0177 1.00019 0 0 0 3.10391 -0.50257 -11.4398 4.09776 -2.33648 20.8851 0 0 0 -0.152377 1.39795 7.01812 -9.74802 1.94358 10.032 -4.96962e-17 2.13443e-07 -2.66804e-08 
1.47128 -27.3365 -182.991 -2.66866 -3.5244 4.0285 0.206007 0.0342928 -2.78494 0 0 -6.67011e-09 0 0 0 0 0 0 0 0 0 -70.712 22.011 -7.54592 -1.32397 -18.4346 1.4761 0 0 0 3.68306 0.209714 -15.9866 3.08854 -3.00588 23.7506 0 0 0 0.791357 1.46855 1.33048 -9.47088 2.03924 13.7375 0 0 -1.71422e-06 
1.49839 -27.7703 -184.948 -3.83894 -2.59198 4.99694 2.41836 0.205316 -4.1133 0 0 0 68.0404 -11.181 14.9689 -1.98947e-06 23.0248 -2.14782e-06 0 0 0 -72.1808 22.7795 -6.82954 -0.663163 -20.18 1.62221 0 0 0 5.85819 1.39349 -18.1654 1.69373 -3.27602 23.229 0 0 0 1.70825 1.06296 1.15528 -8.9991 1.2258 9.9935 0 0 0 
1.43014 -28.3005 -187.339 -4.88029 -4.60806 6.3653 3.68578 0.764218 -5.66655 0 0 0 67.9073 -11.2554 15.9916 -3.96126e-06 22.9557 6.68626e-08 0 0 0 -73.0099 23.1997 -8.35117 -1.42197 -19.8339 1.84441 0 0 0 7.30293 2.73697 -21.4816 0.490634 -3.55276 23.0539 4.26887e-07 -4.96962e-17 1.33402e-08 2.21022 1.30444 -1.31064 -8.36085 1.33166 13.5796 0 0 0 
1.35865 -28.5193 -189.461 -5.29772 -5.14807 7.27862 4.09124 0.985863 -6.86847 0 0 0 67.9119 -11.4124 14.9999 5.58286e-07 22.6244 -1.6297e-06 0 0 0 -72.5988 23.9921 -8.46745 -1.98771 -21.7077 2.01329 0 0 0 7.79362 3.92061 -23.1945 -2.13051 -3.15245 25.8641 3.2054e-15 4.26887e-07 8.60444e-07 2.61865 1.6459 -4.11603 -8.34169 1.36349 15.6853 -8.53774e-07 1.27222e-14 1.70755e-06 
1.20691 -27.9071 -191.126 -5.63594 -4.42522 6.67434 4.27933 0.342342 -4.61146 0 0 0 69.1 -9.483 14.1328 -0.580552 21.2748 0.0374018 -3.41509e-06 0 0 -72.6064 20.1814 -8.79684 -0.884686 -18.8159 1.52611 0 0 0 8.00859 3.32964 -21.6708 -1.75476 -2.74177 23.8429 0 0 0 3.24031 1.46066 -3.92956 -8.06963 1.24847 14.38 0 0 0 
0.969201 -27.165 -191.951 -6.38993 -4.92988 6.44387 4.95451 0.392313 -4.85966 3.33505e-09 -4.26053e-07 6.67011e-09 68.8691 -12.0602 12.0841 -3.99536e-07 23.8201 7.88289e-07 0 0 0 -72.5286 21.1507 -9.09505 -1.0106 -18.9383 1.5225 0 0 0 8.12184 3.0155 -20.4095 -1.30746 -3.00472 24.5576 0 0 0 4.75148 1.32835 -2.51432 -8.55974 0.802835 11.5837 0 0 0 
0.80753 -26.7506 -193.196 -5.91249 -7.11481 4.01907 3.5191 -0.262566 -0.651542 0 0 0 70.4999 -5.38314 13.7758 -0.896386 17.9608 -0.263724 0 0 0 -73.5855 21.1118 -12.6101 0.503162 -20.289 1.30322 0 0 0 8.03542 2.62855 -17.1922 -2.63449 -2.07724 26.2149 0 0 0 3.67383 0.723098 1.33326 -7.7592 0.725762 8.23011 0 0 0 
